# xmcd
#
# Track frame offsets: 
#        150
#        10727
#        19439
#        30008
#        40939
#        50780
#        62249
#        72700
#        84949
#        99208
#        109651
#        119050
#        131725
#        141902
#        152267
#        164177
#        173617
#        187156
#        204238
#        219822
#        230084
#        262008
#        276391
#        289852
#        303458
#        322860
#        340143
#
# Disc length: 4756 seconds
#
# Revision: 3
# Processed by: cddbd v1.5.2PL0 Copyright (c) Steve Scherf et al.
# Submitted via: ExactAudioCopyFreeDBPlugin 1.0
#
DISCID=8f12921b
DTITLE=The Beatles - 1
DYEAR=2015
DGENRE=blues
TTITLE0=Love me do  (1962)
TTITLE1=From me to you  (1963)
TTITLE2=She loves you  (1963)
TTITLE3=I want to hold your hand  (1963)
TTITLE4=Can't buy me love  (1964)
TTITLE5=A hard day's night  (1964)
TTITLE6=I feel fine  (1964)
TTITLE7=Eight days a week  (1965)
TTITLE8=Ticket to ride  (1965)
TTITLE9=Help!  (1965)
TTITLE10=Yesterday  (1965)
TTITLE11=Day tripper  (1965)
TTITLE12=We can work it out  (1965)
TTITLE13=Paperback writer  (1966)
TTITLE14=Yellow submarine  (1966)
TTITLE15=Eleanor Rigby  (1966)
TTITLE16=Penny lane  (1967)
TTITLE17=All you need is love  (1967)
TTITLE18=Hello, goodbye  (1967)
TTITLE19=Lady Madonna  (1968)
TTITLE20=Hey Jude  (1968)
TTITLE21=Get back  (1969)
TTITLE22=The ballad of John and Yoko  (1969)
TTITLE23=Something  (1969)
TTITLE24=Come together  (1969)
TTITLE25=Let it be  (1970)
TTITLE26=The long and winding road  (1970)
EXTD=
EXTT0=
EXTT1=
EXTT2=
EXTT3=
EXTT4=
EXTT5=
EXTT6=
EXTT7=
EXTT8=
EXTT9=
EXTT10=
EXTT11=
EXTT12=
EXTT13=
EXTT14=
EXTT15=
EXTT16=
EXTT17=
EXTT18=
EXTT19=
EXTT20=
EXTT21=
EXTT22=
EXTT23=
EXTT24=
EXTT25=
EXTT26=
PLAYORDER=
